<?xml version="1.0" encoding="UTF-8" standalone="no"?>
<!-- Created with Inkscape (http://www.inkscape.org/) -->

<svg
   xmlns:dc="http://purl.org/dc/elements/1.1/"
   xmlns:cc="http://creativecommons.org/ns#"
   xmlns:rdf="http://www.w3.org/1999/02/22-rdf-syntax-ns#"
   xmlns:svg="http://www.w3.org/2000/svg"
   xmlns="http://www.w3.org/2000/svg"
   xmlns:sodipodi="http://sodipodi.sourceforge.net/DTD/sodipodi-0.dtd"
   xmlns:inkscape="http://www.inkscape.org/namespaces/inkscape"
   id="svg2"
   version="1.1"
   inkscape:version="0.48.4 r9939"
   width="327"
   height="271"
   sodipodi:docname="widget_previewtest3.svg">
  <metadata
     id="metadata8">
    <rdf:RDF>
      <cc:Work
         rdf:about="">
        <dc:format>image/svg+xml</dc:format>
        <dc:type
           rdf:resource="http://purl.org/dc/dcmitype/StillImage" />
        <dc:title></dc:title>
      </cc:Work>
    </rdf:RDF>
  </metadata>
  <defs
     id="defs6" />
  <sodipodi:namedview
     pagecolor="#ffffff"
     bordercolor="#666666"
     borderopacity="1"
     objecttolerance="10"
     gridtolerance="10"
     guidetolerance="10"
     inkscape:pageopacity="0"
     inkscape:pageshadow="2"
     inkscape:window-width="1024"
     inkscape:window-height="714"
     id="namedview4"
     showgrid="false"
     inkscape:zoom="0.87084871"
     inkscape:cx="163.5"
     inkscape:cy="135.5"
     inkscape:window-x="-2"
     inkscape:window-y="-3"
     inkscape:window-maximized="1"
     inkscape:current-layer="svg2" />
  <path
     style="fill:#000000"
     d="M 0,135.5 0,-1.9999999e-7 l 163.5,0 163.5,0 L 327,135.5 327,271 163.5,271 0,271 0,135.5 z m 19.8,127.3 c 1.40794,-1.40794 1.60791,-6.42987 0.2885,-7.24531 -0.53303,-0.32943 -0.43801,-1.81775 0.22884,-3.58445 1.43924,-3.813 0.0504,-6.34305 -3.72867,-6.7925 C 13.6318,244.82608 11,246.44824 11,248.62244 11,250.47799 13.6395,250.38185 14.36163,248.5 15.42792,245.7213 18,246.78169 18,250 c 0,2.33333 -0.44444,3 -2,3 -1.1,0 -2,0.45 -2,1 0,0.55 0.41786,1 0.92858,1 1.84775,0 3.88144,3.0105 3.36577,4.98241 -0.61708,2.35972 -3.10041,2.68656 -3.93272,0.51759 C 13.6559,258.66088 11,258.50287 11,260.3 c 0,2.07954 2.18981,3.7 5,3.7 1.43,0 3.14,-0.54 3.8,-1.2 z M 31,254.5 c 0,-5.225 -0.3375,-9.49386 -0.75,-9.48635 C 26.51931,245.08155 22.8546,248 26.5,248 c 1.20834,0 1.5,1.55556 1.5,8 0,6.44444 0.29167,8 1.5,8 1.22807,0 1.5,-1.72222 1.5,-9.5 z m -9,-23.43963 c 0,-0.5168 -1.57421,-1.0793 -3.49826,-1.25 L 15.00348,229.5 17.99746,225 c 4.66265,-7.00804 3.7396,-12 -2.21889,-12 -2.04039,0 -3.1373,0.69324 -3.96244,2.50423 -1.49904,3.29003 -0.0259,4.63292 1.91516,1.74577 0.83196,-1.2375 2.13277,-2.25 2.89069,-2.25 2.52837,0 1.4584,5.40735 -2.12198,10.7239 -1.925,2.85846 -3.5,5.43995 -3.5,5.73665 0,0.2967 2.475,0.53945 5.5,0.53945 3.025,0 5.5,-0.42284 5.5,-0.93963 z M 33,230 c 0,-1.1 0.45,-2 1,-2 0.55,0 1,-0.675 1,-1.5 0,-0.825 -0.45,-1.5 -1,-1.5 -0.55555,0 -1,-2.66667 -1,-6 0,-7.95847 -1.97782,-7.96789 -5.9856,-0.0285 C 23.16137,226.60429 23.15914,228 27,228 c 2.33334,0 3,0.44444 3,2 0,1.11111 0.66667,2 1.5,2 0.83334,0 1.5,-0.88889 1.5,-2 z m -5.96456,-5.75 c 0.0195,-0.4125 0.67854,-1.875 1.46456,-3.25 l 1.42913,-2.5 0.0354,3.25 c 0.0244,2.23797 -0.43166,3.25 -1.46457,3.25 -0.825,0 -1.48405,-0.3375 -1.46456,-0.75 z m 40.964565,6.81037 c 0,-0.5168 -1.574217,-1.0793 -3.49826,-1.25 L 61.003485,229.5 63.997464,225 c 4.662649,-7.00804 3.739595,-12 -2.218898,-12 -2.040384,0 -3.1373,0.69324 -3.96244,2.50423 -1.499038,3.29003 -0.02585,4.63292 1.915163,1.74577 0.831963,-1.2375 2.132773,-2.25 2.890688,-2.25 2.528373,0 1.458404,5.40735 -2.121972,10.7239 -1.925,2.85846 -3.5,5.43995 -3.5,5.73665 0,0.2967 2.475,0.53945 5.5,0.53945 3.025,0 5.5,-0.42284 5.5,-0.93963 z m 11.073242,-0.64862 c 3.110334,-3.74772 0.09605,-12.45816 -3.794548,-10.9652 -0.82545,0.31675 -1.278694,-0.38434 -1.278694,-1.97793 0,-2.07624 0.476837,-2.46862 3,-2.46862 1.65,0 3,-0.47587 3,-1.0575 0,-0.62568 -1.735428,-0.93193 -4.25,-0.75 l -4.25,0.3075 -0.30226,5.25 c -0.279529,4.85519 0.751703,6.75885 2.30226,4.25 1.041227,-1.68474 3.329461,-1.11268 4,1 1.422799,4.48284 -2.196709,8.15127 -4.31242,4.3707 -1.36757,-2.44371 -3.106102,-1.30084 -2.098184,1.3793 1.01968,2.71142 5.944031,3.11958 7.983846,0.66175 z M 114,231.06037 c 0,-0.5168 -1.57422,-1.0793 -3.49826,-1.25 L 107.00348,229.5 109.99746,225 c 4.66265,-7.00804 3.73959,-12 -2.2189,-12 -2.04038,0 -3.1373,0.69324 -3.96244,2.50423 -1.49904,3.29003 -0.0258,4.63292 1.91516,1.74577 0.83197,-1.2375 2.13278,-2.25 2.89069,-2.25 2.52837,0 1.45841,5.40735 -2.12197,10.7239 -1.925,2.85846 -3.5,5.43995 -3.5,5.73665 0,0.2967 2.475,0.53945 5.5,0.53945 3.025,0 5.5,-0.42284 5.5,-0.93963 z m 11.42857,-0.6318 c 3.61021,-3.6102 0.47922,-12.12421 -4.04138,-10.98961 -2.66037,0.66771 -2.85593,0.30541 -1.35201,-2.5047 0.56935,-1.06384 1.91935,-1.93426 3,-1.93426 1.08065,0 1.96482,-0.47851 1.96482,-1.06336 0,-0.59621 -1.41775,-0.92569 -3.2272,-0.75 -2.23584,0.2171 -3.63117,1.08133 -4.54227,2.81336 -1.58643,3.01584 -1.12834,12.21327 0.71916,14.43938 1.66636,2.00784 5.46573,2.00235 7.47888,-0.0108 z m -5.80274,-1.96127 c -1.01404,-2.64253 -0.72248,-5.1422 0.74149,-6.35719 1.92792,-1.60003 3.86927,0.96837 3.45494,4.57087 -0.36092,3.13803 -3.21201,4.35168 -4.19643,1.78632 z M 161,231.06037 c 0,-0.5168 -1.57422,-1.0793 -3.49826,-1.25 L 154.00348,229.5 156.99746,225 c 4.66266,-7.00804 3.73959,-12 -2.21889,-12 -2.04038,0 -3.13731,0.69324 -3.96245,2.50423 -1.49903,3.29003 -0.0259,4.63292 1.91517,1.74577 0.83196,-1.2375 2.13277,-2.25 2.89069,-2.25 2.52837,0 1.4584,5.40735 -2.12197,10.7239 -1.92501,2.85846 -3.5,5.43995 -3.5,5.73665 0,0.2967 2.47499,0.53945 5.5,0.53945 3.02499,0 5.5,-0.42284 5.5,-0.93963 z m 8.32943,-4.19407 c 0.3344,-2.82353 1.52209,-6.88739 2.63929,-9.03079 C 173.08592,215.69211 174,213.72727 174,213.46921 174,213.21114 171.525,213 168.5,213 c -3.025,0 -5.5,0.45 -5.5,1 0,0.55 1.74354,1 3.87454,1 l 3.87454,0 -1.86096,3.76133 C 166.23987,224.11391 165.24905,232 167.22479,232 c 1.05553,0 1.67584,-1.51305 2.10465,-5.1337 z M 208,231.06037 c 0,-0.5168 -1.57422,-1.0793 -3.49826,-1.25 L 201.00348,229.5 203.99746,225 c 4.66266,-7.00804 3.73959,-12 -2.21889,-12 -2.04039,0 -3.13731,0.69324 -3.96245,2.50423 -1.49904,3.29003 -0.0259,4.63292 1.91517,1.74577 0.83196,-1.2375 2.13277,-2.25 2.89069,-2.25 2.52837,0 1.4584,5.40735 -2.12197,10.7239 -1.92501,2.85846 -3.5,5.43995 -3.5,5.73665 0,0.2967 2.47499,0.53945 5.5,0.53945 3.025,0 5.5,-0.42284 5.5,-0.93963 z m 10.57294,0.17432 c 2.05518,-1.40727 2.48937,-4.49065 0.96086,-6.82345 -0.93361,-1.42488 -1.13347,-2.54063 -0.52268,-2.91811 1.38141,-0.85376 1.23692,-5.84509 -0.21112,-7.29313 -0.66,-0.66 -2.4745,-1.2 -4.03222,-1.2 -3.30316,0 -5.01722,3.16014 -3.66336,6.75396 0.5231,1.3886 0.41246,3.21227 -0.28818,4.75 -1.69212,3.71383 0.28838,7.50075 3.91232,7.48073 1.52429,-0.008 3.25426,-0.34592 3.84438,-0.75 z m -4.90627,-1.90136 c -1.12834,-1.12833 -0.73935,-4.02812 0.70065,-5.22322 1.03802,-0.86147 1.66001,-0.7821 2.58262,0.32957 2.23944,2.69836 -0.85957,7.31736 -3.28327,4.89365 z M 213.63837,219.5 c -0.78922,-2.05668 0.27967,-4.5 1.96862,-4.5 0.88112,0 1.39302,1.10241 1.39302,3 0,3.18623 -2.3177,4.22042 -3.36164,1.5 z M 255,231.06037 c 0,-0.5168 -1.57422,-1.0793 -3.49826,-1.25 L 248.00348,229.5 250.99746,225 c 4.66265,-7.00804 3.73959,-12 -2.2189,-12 -2.04038,0 -3.1373,0.69324 -3.96244,2.50423 -1.49904,3.29003 -0.0259,4.63292 1.91516,1.74577 0.83197,-1.2375 2.13278,-2.25 2.89069,-2.25 2.52837,0 1.45841,5.40735 -2.12197,10.7239 -1.925,2.85846 -3.5,5.43995 -3.5,5.73665 0,0.2967 2.475,0.53945 5.5,0.53945 3.025,0 5.5,-0.42284 5.5,-0.93963 z m 10.96482,-0.99463 c 1.43422,-2.67987 1.31259,-14.38833 -0.16482,-15.86574 -1.90147,-1.90147 -6.59158,-1.45796 -7.76482,0.73426 -2.53087,4.72898 -0.48462,11.06574 3.57333,11.06574 3.25289,0 2.92959,3.34898 -0.36873,3.81955 -3.29619,0.47027 -2.72753,2.18045 0.72504,2.18045 1.90777,0 3.33389,-0.68962 4,-1.93426 z m -5.57078,-7.48127 c -1.00374,-2.6157 0.0581,-7.0583 1.76428,-7.38159 2.16363,-0.40996 3.55397,5.23393 1.80769,7.33808 -1.53108,1.84484 -2.87446,1.8612 -3.57197,0.0435 z M 299.8,230.8 c 1.40794,-1.40794 1.6079,-6.42987 0.2885,-7.24531 -0.53304,-0.32943 -0.43802,-1.81775 0.22884,-3.58445 1.43924,-3.813 0.0504,-6.34305 -3.72867,-6.7925 -2.95688,-0.35166 -5.58867,1.2705 -5.58867,3.4447 0,1.85555 2.63949,1.75941 3.36163,-0.12244 1.06629,-2.7787 3.63837,-1.71831 3.63837,1.5 0,2.33333 -0.44444,3 -2,3 -1.1,0 -2,0.45 -2,1 0,0.55 0.65264,1 1.45031,1 1.89621,0 3.41715,2.79083 2.8023,5.14203 -0.58309,2.22972 -3.08442,2.45984 -3.89098,0.35797 C 293.65589,226.66088 291,226.50287 291,228.3 c 0,2.07954 2.1898,3.7 5,3.7 1.43,0 3.14,-0.54 3.8,-1.2 z m 13.32756,-0.45369 C 313.96504,229.3372 314.5,226.2788 314.5,222.5 c 0,-6.85869 -1.40844,-9.5 -5.06574,-9.5 -3.36353,0 -5.43426,3.61999 -5.43426,9.5 0,2.95669 0.64618,5.97754 1.5567,7.27749 1.83533,2.6203 5.63156,2.90552 7.57086,0.56882 z m -5.46089,-1.01298 C 307.3,228.96667 307,225.80254 307,222.30195 c 0,-4.8141 0.37595,-6.50898 1.54313,-6.95687 2.03244,-0.77992 2.43243,-0.27053 3.12141,3.97514 1.11126,6.84789 -1.24973,12.76126 -3.99787,10.01311 z M 280,190 l 0,-16 -23.5,0 -23.5,0 0,16 0,16 23.5,0 23.5,0 0,-16 z m -35.38884,8.75 c 0.40106,-0.6875 1.92686,-3.05 3.39066,-5.25 4.50769,-6.77475 4.82388,-10.5 0.89119,-10.5 -1.04115,0 -1.89301,0.675 -1.89301,1.5 0,0.825 -0.675,1.5 -1.5,1.5 -0.825,0 -1.5,-0.41786 -1.5,-0.92857 0,-1.70803 3.11803,-4.07143 5.37143,-4.07143 5.39165,0 6.07207,5.32229 1.53413,12 l -3.05805,4.5 2.82624,0.32695 c 5.54247,0.64116 4.81442,2.17305 -1.03277,2.17305 -4.32945,0 -5.57801,-0.31029 -5.02982,-1.25 z m 13.50955,-1 c 0.65509,-1.2375 2.17937,-3.6 3.3873,-5.25 3.99293,-5.45426 4.15689,-9.5 0.385,-9.5 -1.04115,0 -1.89301,0.675 -1.89301,1.5 0,0.825 -0.675,1.5 -1.5,1.5 -0.825,0 -1.5,-0.41786 -1.5,-0.92857 0,-1.70803 3.11803,-4.07143 5.37143,-4.07143 5.3651,0 6.08288,5.30249 1.62439,12 l -2.99562,4.5 2.7499,0.32695 c 5.46508,0.64976 4.70431,2.17305 -1.08528,2.17305 -5.63385,0 -5.71414,-0.0398 -4.54411,-2.25 z M 18,190.5 c 0,-5.225 -0.3375,-9.49386 -0.75,-9.48635 C 13.51931,181.08155 9.85461,184 13.5,184 c 1.20834,0 1.5,1.55556 1.5,8 0,6.44444 0.29167,8 1.5,8 1.22807,0 1.5,-1.72222 1.5,-9.5 z m 12.32943,4.3663 c 0.33441,-2.82353 1.52209,-6.88739 2.63929,-9.03079 C 34.08593,183.69211 35,181.72727 35,181.46921 35,181.21114 32.525,181 29.5,181 c -3.025,0 -5.5,0.45 -5.5,1 0,0.55 1.74355,1 3.87454,1 l 3.87454,0 -1.86095,3.76133 C 27.23988,192.11391 26.24905,200 28.22479,200 c 1.05553,0 1.67583,-1.51305 2.10464,-5.1337 z M 64.000005,190.5 c 0,-5.225 -0.3375,-9.49386 -0.75,-9.48635 -3.73069,0.0679 -7.3954,2.98635 -3.75,2.98635 1.208333,0 1.5,1.55556 1.5,8 0,6.44444 0.291667,8 1.5,8 1.22807,0 1.5,-1.72222 1.5,-9.5 z m 14.572942,8.73469 c 2.055176,-1.40727 2.489369,-4.49065 0.960859,-6.82345 -0.933616,-1.42488 -1.133467,-2.54063 -0.522686,-2.91811 1.381412,-0.85376 1.236927,-5.84509 -0.211115,-7.29313 -0.66,-0.66 -2.474501,-1.2 -4.032224,-1.2 -3.303158,0 -5.017225,3.16014 -3.66337,6.75396 0.523108,1.3886 0.412473,3.21227 -0.288165,4.75 -1.692134,3.71383 0.288376,7.50075 3.91232,7.48073 1.524292,-0.008 3.254263,-0.34592 3.844381,-0.75 z m -4.906275,-1.90136 c -1.128333,-1.12833 -0.739348,-4.02812 0.700654,-5.22322 1.038018,-0.86147 1.660012,-0.7821 2.582619,0.32957 2.239437,2.69836 -0.859566,7.31736 -3.283273,4.89365 z M 73.638382,187.5 c -0.789224,-2.05668 0.279654,-4.5 1.968615,-4.5 0.881123,0 1.393011,1.10241 1.393011,3 0,3.18623 -2.317702,4.22042 -3.361626,1.5 z m 36.361628,3 c 0,-5.225 -0.3375,-9.49386 -0.75,-9.48635 -3.73069,0.0679 -7.3954,2.98635 -3.75,2.98635 1.20833,0 1.5,1.55556 1.5,8 0,6.44444 0.29167,8 1.5,8 1.22807,0 1.5,-1.72222 1.5,-9.5 z m 14.96482,7.56574 c 1.43422,-2.67987 1.31259,-14.38833 -0.16482,-15.86574 -1.90147,-1.90147 -6.59158,-1.45796 -7.76482,0.73426 -2.53087,4.72898 -0.48462,11.06574 3.57333,11.06574 3.25289,0 2.92959,3.34898 -0.36873,3.81955 -3.29619,0.47027 -2.72753,2.18045 0.72504,2.18045 1.90777,0 3.33389,-0.68962 4,-1.93426 z m -5.57078,-7.48127 c -0.98879,-2.57674 0.0575,-7.05819 1.72148,-7.37334 2.04079,-0.38653 3.42367,5.43426 1.76567,7.43203 -1.45183,1.74935 -2.80206,1.72662 -3.48715,-0.0587 z m 41.60596,8.4759 c 0,-0.5168 -1.57422,-1.0793 -3.49826,-1.25 L 154.00349,197.5 156.99747,193 c 4.66265,-7.00804 3.73959,-12 -2.2189,-12 -2.04038,0 -3.1373,0.69324 -3.96244,2.50423 -1.49904,3.29003 -0.0259,4.63292 1.91516,1.74577 0.83197,-1.2375 2.13278,-2.25 2.89069,-2.25 2.52837,0 1.45841,5.40735 -2.12197,10.7239 -1.925,2.85846 -3.5,5.43995 -3.5,5.73665 0,0.2967 2.475,0.53945 5.5,0.53945 3.025,0 5.5,-0.42284 5.5,-0.93963 z m 11.12756,-0.71406 c 0.83748,-1.00911 1.37244,-4.06751 1.37244,-7.84631 0,-6.85869 -1.40844,-9.5 -5.06574,-9.5 -3.36353,0 -5.43426,3.61999 -5.43426,9.5 0,2.95669 0.64618,5.97754 1.5567,7.27749 1.83533,2.6203 5.63156,2.90552 7.57086,0.56882 z m -5.46089,-1.01298 c -0.36667,-0.36666 -0.66667,-3.53079 -0.66667,-7.03138 0,-4.8141 0.37595,-6.50898 1.54313,-6.95687 2.03244,-0.77992 2.43243,-0.27053 3.12141,3.97514 1.11126,6.84789 -1.24973,12.76126 -3.99787,10.01311 z m 41.33333,1.72704 c 0,-0.5168 -1.57422,-1.0793 -3.49826,-1.25 L 201.00349,197.5 203.99747,193 c 4.66265,-7.00804 3.73959,-12 -2.2189,-12 -2.04038,0 -3.1373,0.69324 -3.96244,2.50423 -1.49904,3.29003 -0.0259,4.63292 1.91516,1.74577 0.83197,-1.2375 2.13278,-2.25 2.89069,-2.25 2.52837,0 1.45841,5.40735 -2.12197,10.7239 -1.925,2.85846 -3.5,5.43995 -3.5,5.73665 0,0.2967 2.475,0.53945 5.5,0.53945 3.025,0 5.5,-0.42284 5.5,-0.93963 z m 9,-8.56037 c 0,-5.225 -0.3375,-9.49386 -0.75,-9.48635 -3.73069,0.0679 -7.3954,2.98635 -3.75,2.98635 1.20833,0 1.5,1.55556 1.5,8 0,6.44444 0.29167,8 1.5,8 1.22807,0 1.5,-1.72222 1.5,-9.5 z M 302,199.06037 c 0,-0.5168 -1.57422,-1.0793 -3.49826,-1.25 L 295.00348,197.5 297.99746,193 c 4.66265,-7.00804 3.73959,-12 -2.2189,-12 -2.04038,0 -3.1373,0.69324 -3.96244,2.50423 -1.49904,3.29003 -0.0258,4.63292 1.91516,1.74577 0.83197,-1.2375 2.13278,-2.25 2.89069,-2.25 2.52837,0 1.45841,5.40735 -2.12197,10.7239 -1.925,2.85846 -3.5,5.43995 -3.5,5.73665 0,0.2967 2.475,0.53945 5.5,0.53945 3.025,0 5.5,-0.42284 5.5,-0.93963 z M 312.8,198.8 c 1.40794,-1.40794 1.6079,-6.42987 0.2885,-7.24531 -0.53304,-0.32943 -0.43802,-1.81775 0.22884,-3.58445 1.43924,-3.813 0.0504,-6.34305 -3.72867,-6.7925 -2.95688,-0.35166 -5.58867,1.2705 -5.58867,3.4447 0,1.85555 2.63949,1.75941 3.36163,-0.12244 1.06629,-2.7787 3.63837,-1.71831 3.63837,1.5 0,2.33333 -0.44444,3 -2,3 -1.1,0 -2,0.45 -2,1 0,0.55 0.65264,1 1.45031,1 1.89621,0 3.41715,2.79083 2.8023,5.14203 -0.58309,2.22972 -3.08442,2.45984 -3.89098,0.35797 C 306.65589,194.66088 304,194.50287 304,196.3 c 0,2.07954 2.1898,3.7 5,3.7 1.43,0 3.14,-0.54 3.8,-1.2 z M 18,158.5 c 0,-5.225 -0.3375,-9.49386 -0.75,-9.48635 C 13.51931,149.08155 9.85461,152 13.5,152 c 1.20834,0 1.5,1.55556 1.5,8 0,6.44444 0.29167,8 1.5,8 1.22807,0 1.5,-1.72222 1.5,-9.5 z m 15.12756,7.84631 C 33.97729,165.32244 34.5,162.2419 34.5,158.25795 c 0,-5.46338 -0.33907,-6.70922 -2.24634,-8.25364 C 27.65972,146.28437 24,150.19531 24,158.82455 c 0,2.66295 0.68038,5.70181 1.55671,6.95294 1.83533,2.6203 5.63156,2.90552 7.57085,0.56882 z m -5.46089,-1.01298 C 27.3,164.96667 27,161.80254 27,158.30195 c 0,-4.8141 0.37595,-6.50898 1.54313,-6.95687 2.03244,-0.77992 2.43244,-0.27053 3.12141,3.97514 1.11126,6.84789 -1.24973,12.76126 -3.99787,10.01311 z M 64.000008,158.5 c 0,-5.225 -0.3375,-9.49386 -0.75,-9.48635 -3.73069,0.0679 -7.3954,2.98635 -3.75,2.98635 1.208333,0 1.5,1.55556 1.5,8 0,6.44444 0.291667,8 1.5,8 1.22807,0 1.5,-1.72222 1.5,-9.5 z m 13,0 c 0,-5.225 -0.3375,-9.49386 -0.75,-9.48635 -3.73069,0.0679 -7.3954,2.98635 -3.75,2.98635 1.208333,0 1.5,1.55556 1.5,8 0,6.44444 0.291667,8 1.5,8 1.22807,0 1.5,-1.72222 1.5,-9.5 z m 33.000002,0 c 0,-5.225 -0.3375,-9.49386 -0.75,-9.48635 -3.73069,0.0679 -7.3954,2.98635 -3.75,2.98635 1.20833,0 1.5,1.55556 1.5,8 0,6.44444 0.29167,8 1.5,8 1.22807,0 1.5,-1.72222 1.5,-9.5 z m 17,8.56037 c 0,-0.5168 -1.57422,-1.0793 -3.49826,-1.25 L 120.00349,165.5 122.99747,161 c 3.52487,-5.29794 3.85518,-9.28938 0.93785,-11.33276 -2.6767,-1.87483 -5.82222,-1.00955 -7.18242,1.97576 -1.45099,3.18459 0.0811,4.42909 1.97839,1.607 0.83197,-1.2375 2.13278,-2.25 2.89069,-2.25 2.52837,0 1.45841,5.40735 -2.12197,10.7239 -1.925,2.85846 -3.5,5.43995 -3.5,5.73665 0,0.2967 2.475,0.53945 5.5,0.53945 3.025,0 5.5,-0.42284 5.5,-0.93963 z m 30,-8.56037 c 0,-5.225 -0.3375,-9.49386 -0.75,-9.48635 -3.73069,0.0679 -7.3954,2.98635 -3.75,2.98635 1.20833,0 1.5,1.55556 1.5,8 0,6.44444 0.29167,8 1.5,8 1.22807,0 1.5,-1.72222 1.5,-9.5 z m 14.8,8.3 c 1.40794,-1.40794 1.6079,-6.42987 0.2885,-7.24531 -0.53682,-0.33177 -0.46958,-1.73415 0.16357,-3.41155 1.2572,-3.3307 0.60278,-5.61527 -2.00891,-7.01301 -2.32858,-1.24621 -6.57651,0.64673 -7.05763,3.14499 -0.41062,2.13218 2.36868,2.32897 3.1761,0.22488 1.06629,-2.7787 3.63837,-1.71831 3.63837,1.5 0,2.33333 -0.44444,3 -2,3 -1.1,0 -2,0.45 -2,1 0,0.55 0.65264,1 1.45031,1 1.89621,0 3.41715,2.79083 2.8023,5.14203 -0.58309,2.22972 -3.08442,2.45984 -3.89098,0.35797 -0.70574,-1.83912 -3.36163,-1.99713 -3.36163,-0.2 0,2.07954 2.1898,3.7 5,3.7 1.43,0 3.14,-0.54 3.8,-1.2 z m 32.2,-8.3 c 0,-5.225 -0.3375,-9.49386 -0.75,-9.48635 -3.73069,0.0679 -7.3954,2.98635 -3.75,2.98635 1.20833,0 1.5,1.55556 1.5,8 0,6.44444 0.29167,8 1.5,8 1.22807,0 1.5,-1.72222 1.5,-9.5 z m 15,7.5 c 0,-1.1 0.45,-2 1,-2 0.55,0 1,-0.675 1,-1.5 0,-0.825 -0.45,-1.5 -1,-1.5 -0.55556,0 -1,-2.66667 -1,-6 0,-7.95847 -1.97782,-7.96789 -5.9856,-0.0285 -3.85304,7.63279 -3.85526,9.0285 -0.0144,9.0285 2.33333,0 3,0.44444 3,2 0,1.11111 0.66667,2 1.5,2 0.83333,0 1.5,-0.88889 1.5,-2 z m -5.96456,-5.75 c 0.0195,-0.4125 0.67854,-1.875 1.46456,-3.25 l 1.42913,-2.5 0.0354,3.25 c 0.0244,2.23797 -0.43165,3.25 -1.46456,3.25 -0.825,0 -1.48405,-0.3375 -1.46456,-0.75 z M 251,158.5 c 0,-5.225 -0.3375,-9.49386 -0.75,-9.48635 -3.73069,0.0679 -7.3954,2.98635 -3.75,2.98635 1.20833,0 1.5,1.55556 1.5,8 0,6.44444 0.29167,8 1.5,8 1.22807,0 1.5,-1.72222 1.5,-9.5 z m 15.07324,7.91175 c 3.12078,-3.76031 0.22488,-12.23085 -3.67044,-10.73608 C 261.42014,156.05276 261,155.43319 261,153.60699 261,151.377 261.43384,151 264,151 c 1.65,0 3,-0.47587 3,-1.0575 0,-0.62568 -1.73543,-0.93193 -4.25,-0.75 l -4.25,0.3075 -0.30226,5.25 c -0.27953,4.85519 0.7517,6.75885 2.30226,4.25 1.04123,-1.68474 3.32946,-1.11268 4,1 1.4228,4.48284 -2.19671,8.15127 -4.31242,4.3707 -1.36757,-2.44371 -3.1061,-1.30084 -2.09818,1.3793 1.01968,2.71142 5.94403,3.11958 7.98384,0.66175 z M 298,158.5 c 0,-5.225 -0.3375,-9.49386 -0.75,-9.48635 -3.73069,0.0679 -7.3954,2.98635 -3.75,2.98635 1.20833,0 1.5,1.55556 1.5,8 0,6.44444 0.29167,8 1.5,8 1.22807,0 1.5,-1.72222 1.5,-9.5 z m 15.96482,7.56574 c 2.60806,-4.87321 -0.32963,-11.69296 -4.57763,-10.62678 -2.66037,0.66771 -2.85593,0.30541 -1.35201,-2.5047 0.56935,-1.06384 1.91935,-1.93426 3,-1.93426 2.18326,0 2.66372,-1.52011 0.71482,-2.26161 -2.27284,-0.86475 -5.76228,1.16443 -6.85233,3.98477 -1.31067,3.39114 -0.66501,11.64732 1.07479,13.74366 1.82824,2.20289 6.73041,1.95689 7.99236,-0.40108 z m -6.33899,-1.59844 c -1.01404,-2.64253 -0.72248,-5.1422 0.74149,-6.35719 1.92792,-1.60003 3.86927,0.96837 3.45494,4.57087 -0.36092,3.13803 -3.21201,4.35168 -4.19643,1.78632 z M 26.8,134.8 c 1.40794,-1.40794 1.60791,-6.42987 0.2885,-7.24531 -0.53681,-0.33177 -0.46957,-1.73415 0.16358,-3.41155 1.2572,-3.3307 0.60277,-5.61527 -2.00892,-7.01301 -2.32857,-1.24621 -6.5765,0.64673 -7.05762,3.14499 -0.41062,2.13218 2.36868,2.32897 3.17609,0.22488 C 22.42792,117.7213 25,118.78169 25,122 c 0,2.33333 -0.44444,3 -2,3 -1.1,0 -2,0.45 -2,1 0,0.55 0.65264,1 1.45031,1 1.89621,0 3.41716,2.79083 2.8023,5.14203 -0.58308,2.22972 -3.08442,2.45984 -3.89098,0.35797 C 20.6559,130.66088 18,130.50287 18,132.3 c 0,2.07954 2.18981,3.7 5,3.7 1.43,0 3.14,-0.54 3.8,-1.2 z M 73.000008,134 c 0,-1.1 0.45,-2 1,-2 0.55,0 1,-0.675 1,-1.5 0,-0.825 -0.45,-1.5 -1,-1.5 -0.555556,0 -1,-2.66667 -1,-6 0,-7.95847 -1.97782,-7.96789 -5.985605,-0.0285 -3.85303,7.63279 -3.855255,9.0285 -0.01439,9.0285 2.333333,0 3,0.44444 3,2 0,1.11111 0.666667,2 1.5,2 0.833333,0 1.5,-0.88889 1.5,-2 z m -5.964565,-5.75 c 0.01949,-0.4125 0.678544,-1.875 1.464565,-3.25 l 1.429129,-2.5 0.03544,3.25 c 0.0244,2.23797 -0.431659,3.25 -1.464569,3.25 -0.825,0 -1.484054,-0.3375 -1.464565,-0.75 z m 52.042127,6.15655 c 2.0228,-2.43733 1.66805,-8.38818 -0.59887,-10.04579 -1.05671,-0.77269 -2.49671,-1.18408 -3.2,-0.91421 -0.82545,0.31675 -1.27869,-0.38434 -1.27869,-1.97793 0,-2.07624 0.47684,-2.46862 3,-2.46862 1.65,0 3,-0.47587 3,-1.0575 0,-0.62568 -1.73543,-0.93193 -4.25,-0.75 l -4.25,0.3075 -0.30226,5.25 c -0.27953,4.85519 0.7517,6.75885 2.30226,4.25 1.04123,-1.68474 3.32946,-1.11268 4,1 1.4228,4.48284 -2.19671,8.15127 -4.31242,4.3707 -1.36757,-2.44371 -3.1061,-1.30084 -2.09818,1.3793 1.02065,2.714 5.94474,3.11871 7.98816,0.65655 z m 47.35101,0.022 c 3.61021,-3.6102 0.47922,-12.12421 -4.04138,-10.98961 -1.61255,0.40474 -2.38719,0.17114 -2.38719,-0.71989 0,-1.87204 2.08586,-3.71905 4.2,-3.71905 2.05249,0 2.42866,-1.54683 0.55,-2.26161 -2.27284,-0.86475 -5.76228,1.16443 -6.85233,3.98477 -1.31067,3.39114 -0.66501,11.64732 1.07479,13.74366 1.64637,1.98375 5.45365,1.96421 7.45611,-0.0383 z m -5.80274,-1.96127 c -1.08342,-2.82333 -0.68194,-6.23179 0.80106,-6.80087 2.05098,-0.78704 3.77054,1.75254 3.39537,5.01455 -0.36092,3.13803 -3.21201,4.35168 -4.19643,1.78632 z m 49.7036,-1.601 c 0.3344,-2.82353 1.52209,-6.88739 2.63929,-9.03079 1.1172,-2.14338 2.03128,-4.10822 2.03128,-4.36628 0,-0.25807 -2.475,-0.46921 -5.5,-0.46921 -3.025,0 -5.5,0.45 -5.5,1 0,0.55 1.74354,1 3.87454,1 l 3.87454,0 -1.86096,3.76133 C 207.23988,128.11391 206.24906,136 208.2248,136 c 1.05553,0 1.67583,-1.51305 2.10464,-5.1337 z m 50.72188,2.49872 c 0.75771,-1.99293 0.63256,-3.19854 -0.51364,-4.94785 -0.93571,-1.42807 -1.13715,-2.54668 -0.52656,-2.92404 1.80619,-1.11629 1.09263,-6.30705 -1.07581,-7.82589 -4.19061,-2.93521 -8.71192,1.09353 -6.8309,6.08672 0.5231,1.3886 0.41247,3.21227 -0.28817,4.75 -1.8617,4.08599 0.27052,7.49604 4.68707,7.49604 2.91091,0 3.72566,-0.47204 4.54801,-2.63498 z m -6.38465,-0.0317 c -1.12834,-1.12833 -0.73935,-4.02812 0.70065,-5.22322 1.03802,-0.86147 1.66001,-0.7821 2.58262,0.32957 2.23944,2.69836 -0.85957,7.31736 -3.28327,4.89365 z m -0.0283,-9.8333 c -0.78922,-2.05668 0.27966,-4.5 1.96862,-4.5 0.88112,0 1.39301,1.10241 1.39301,3 0,3.18623 -2.3177,4.22042 -3.36163,1.5 z m 52.32645,10.56574 C 307.53417,133.0019 308,129.20242 308,125.62245 c 0,-5.49321 -0.33005,-6.74022 -2.1148,-7.99031 -3.80915,-2.66802 -7.8852,0.42709 -7.8852,5.98756 0,3.6704 2.18513,6.3803 5.14475,6.3803 3.16774,0 1.88944,3.43643 -1.42026,3.81806 -3.56099,0.4106 -2.50616,2.18194 1.29934,2.18194 1.84943,0 3.28213,-0.70318 3.94099,-1.93426 z m -5.57078,-7.48127 c -1.00374,-2.6157 0.0581,-7.0583 1.76428,-7.38159 2.16363,-0.40996 3.55397,5.23393 1.80769,7.33808 -1.53108,1.84484 -2.87446,1.8612 -3.57197,0.0435 z M 258,94.5 c 0,-5.225 -0.3375,-9.493855 -0.75,-9.486345 C 253.51931,85.081575 249.8546,88 253.5,88 c 1.20833,0 1.5,1.555556 1.5,8 0,6.44444 0.29167,8 1.5,8 1.22807,0 1.5,-1.72222 1.5,-9.5 z m 51,8.56037 c 0,-0.5168 -1.57422,-1.0793 -3.49826,-1.25 L 302.00348,101.5 304.99746,97 c 3.52487,-5.297937 3.85518,-9.289378 0.93785,-11.332759 -2.6767,-1.874832 -5.82222,-1.009554 -7.18242,1.975758 -1.45099,3.184589 0.0811,4.429091 1.97839,1.607001 0.83197,-1.2375 2.13278,-2.25 2.89069,-2.25 2.5809,0 1.47431,5.512528 -2.12197,10.57078 -1.925,2.70755 -3.5,5.26176 -3.5,5.67602 0,0.41426 2.475,0.7532 5.5,0.7532 3.025,0 5.5,-0.42284 5.5,-0.93963 z M 7.2219,56.25 7.55339,51.5 8.89541,56.25 c 0.73811,2.6125 1.7011,4.75 2.13998,4.75 0.43887,0 1.47492,-1.9125 2.30233,-4.25 l 1.50439,-4.25 0.079,4.25 c 0.14141,7.612479 2.07894,4.583542 2.07894,-3.25 0,-6 -0.3,-7.5 -1.5,-7.5 -0.825,0 -1.53458,0.7875 -1.57685,1.75 -0.0423,0.9625 -0.63586,3.55 -1.3191,5.75 l -1.24225,4 -1.70883,-5.75 C 8.57659,48.127945 7.39941,46 6.47212,46 c -1.16524,0 -1.47207,1.563256 -1.47207,7.5 0,8.237651 1.69274,10.332716 2.2219,2.75 z m 21.74292,2.815741 C 30.53629,56.129426 30.22064,49.36349 28.42858,47.571429 26.25625,45.399098 22.28774,45.593853 21.03519,47.934259 20.46584,48.998101 20,51.502684 20,53.5 c 0,5.216682 1.52222,7.5 5,7.5 1.87299,0 3.303,-0.69764 3.96482,-1.934259 z m -6.35783,-1.647528 c -0.77822,-2.028014 -0.77822,-5.808412 0,-7.836426 0.78513,-2.046006 4.0009,-2.046006 4.78603,0 C 28.99318,53.751742 27.65968,59 25,59 24.01769,59 22.94084,58.288196 22.60699,57.418213 z M 35.08882,56.25 l 0.0888,-4.75 2.161184,4.729938 c 3.224399,7.056887 4.661181,6.2154 4.661181,-2.729938 0,-4.333333 -0.422222,-7.5 -1,-7.5 -0.55,0 -1.027381,2.3625 -1.060846,5.25 l -0.06085,5.25 -2.645977,-5.25 C 33.43306,43.71173 31.99998,44.327981 31.99998,53.5 c 0,6 0.3,7.5 1.5,7.5 1.11035,0 1.52308,-1.23392 1.58882,-4.75 z M 60.000005,54.5 c 0,-5.833333 0.205128,-6.5 2,-6.5 1.1,0 2,-0.45 2,-1 0,-0.55 -2.025,-1 -4.5,-1 -2.475,0 -4.5,0.45 -4.5,1 0,0.55 0.675,1 1.5,1 1.179487,0 1.5,1.388889 1.5,6.5 0,3.666667 0.435897,6.5 1,6.5 0.564103,0 1,-2.833333 1,-6.5 z m 12.418213,5.893011 c 1.230692,-0.472261 1.581787,-2.136966 1.581787,-7.5 0,-3.928674 -0.43005,-6.893011 -1,-6.893011 -0.562386,0 -1,2.79767 -1,6.393011 0,4.508956 -0.406147,6.548865 -1.378145,6.921855 -2.42302,0.9298 -3.621855,-1.557622 -3.621855,-7.514866 0,-3.2 -0.448276,-5.8 -1,-5.8 -1.433587,0 -1.254669,12.345331 0.2,13.8 1.310219,1.310219 3.744281,1.542348 6.218213,0.593011 z M 84.500005,60 c -0.339919,-0.55 -1.716476,-1 -3.059017,-1 -1.937049,0 -2.440983,-0.516118 -2.440983,-2.5 0,-2.015375 0.496066,-2.5 2.559017,-2.5 1.451367,0 2.291506,-0.432842 1.940983,-1 -0.339919,-0.55 -1.491476,-1 -2.559017,-1 -1.274316,0 -1.940983,-0.686937 -1.940983,-2 0,-1.453772 0.666667,-2 2.440983,-2 1.342541,0 2.719098,-0.45 3.059017,-1 0.377502,-0.610812 -1.156282,-1 -3.940983,-1 l -4.559017,0 0,7.5 0,7.5 4.559017,0 c 2.784701,0 4.318485,-0.389188 3.940983,-1 z m 18.758985,-3.75 1.37523,-4.75 0.75315,4.809914 c 0.47017,3.002672 1.19642,4.662326 1.9329,4.417112 1.23684,-0.411813 4.06471,-13.675386 3.11761,-14.622493 -0.9961,-0.996092 -2.40597,2.34169 -2.49024,5.895467 -0.0681,2.873069 -0.23721,3.141754 -0.94397,1.5 -0.47354,-1.1 -1.12666,-3.2375 -1.45138,-4.75 -0.89328,-4.16086 -2.2314,-3.305197 -3.12767,2 l -0.80248,4.75 -0.97867,-4.75 C 100.10521,48.1375 99.290225,46 98.832405,46 97.747037,46 97.780591,47.076209 99.10266,54.668087 99.70912,58.150639 100.58297,61 101.04454,61 c 0.46157,0 1.45808,-2.1375 2.21445,-4.75 z M 121.50001,60 c -0.33992,-0.55 -1.71648,-1 -3.05902,-1 -1.93705,0 -2.44098,-0.516118 -2.44098,-2.5 0,-2.015375 0.49607,-2.5 2.55902,-2.5 1.45136,0 2.2915,-0.432842 1.94098,-1 -0.33992,-0.55 -1.49148,-1 -2.55902,-1 -1.27431,0 -1.94098,-0.686937 -1.94098,-2 0,-1.466667 0.66667,-2 2.5,-2 1.375,0 2.5,-0.45 2.5,-1 0,-0.55 -1.8,-1 -4,-1 l -4,0 0,7.5 0,7.5 4.55902,0 c 2.7847,0 4.31848,-0.389188 3.94098,-1 z M 130.8,59.8 c 0.66,-0.66 1.2,-3.495 1.2,-6.3 0,-5.955287 -1.17398,-7.5 -5.69999,-7.5 l -3.3,0 0,7.5 0,7.5 3.3,0 C 128.115,61 130.14,60.46 130.8,59.8 z m -4.79999,-6.3 c 0,-4.839482 0.25016,-5.598473 1.74999,-5.309629 1.38686,0.267086 1.75,1.368865 1.75,5.309629 0,3.940764 -0.36314,5.042543 -1.75,5.309629 -1.49983,0.288844 -1.74999,-0.470147 -1.74999,-5.309629 z m 26,1 c 0,-5.833333 0.20513,-6.5 2,-6.5 1.09999,0 2,-0.45 2,-1 0,-0.55 -2.02501,-1 -4.5,-1 -2.475,0 -4.5,0.45 -4.5,1 0,0.55 0.67499,1 1.5,1 1.17948,0 1.5,1.388889 1.5,6.5 0,3.666667 0.4359,6.5 1,6.5 0.56409,0 1,-2.833333 1,-6.5 z m 8,3.5 c 0,-2.533333 0.38889,-3 2.5,-3 2.1111,0 2.5,0.466667 2.5,3 0,1.65 0.44999,3 1,3 0.57777,0 1,-3.166667 1,-7.5 0,-4.333333 -0.42223,-7.5 -1,-7.5 -0.55001,0 -1,1.575 -1,3.5 0,3.066667 -0.30952,3.5 -2.5,3.5 -2.19049,0 -2.5,-0.433333 -2.5,-3.5 0,-2.444444 -0.45239,-3.5 -1.5,-3.5 -1.20001,0 -1.5,1.5 -1.5,7.5 0,6 0.29999,7.5 1.5,7.5 1,0 1.5,-1 1.5,-3 z m 16.4182,2.393011 C 177.64891,59.92075 178,58.256045 178,52.893011 178,48.964337 177.56995,46 177,46 c -0.56239,0 -1,2.79767 -1,6.393011 0,4.508956 -0.40614,6.548865 -1.37813,6.921855 C 172.19883,60.244666 171,57.757244 171,51.8 c 0,-3.2 -0.44828,-5.8 -1,-5.8 -1.43359,0 -1.25467,12.345331 0.2,13.8 1.31022,1.310219 3.74428,1.542348 6.21821,0.593011 z M 200.00001,57.5 c 0,-3.115192 0.30234,-3.516473 2.75,-3.649832 l 2.75,-0.149832 -2.75,-0.41659 c -2.13253,-0.323052 -2.75,-0.963015 -2.75,-2.850168 0,-1.91346 0.5217,-2.433578 2.44097,-2.433578 1.34254,0 2.7191,-0.45 3.05903,-1 0.3775,-0.610812 -1.15629,-1 -3.94098,-1 l -4.55902,0 0,7.5 c 0,6 0.29999,7.5 1.5,7.5 1.04761,0 1.5,-1.055556 1.5,-3.5 z m 10,0.426676 c 0,-2.386737 0.39095,-2.999183 1.75,-2.74145 1.05548,0.200164 1.87557,1.419875 2.06641,3.073325 C 213.99045,59.766348 214.73057,61 215.46111,61 c 0.99579,0 1.1352,-0.856047 0.55695,-3.41994 -0.42422,-1.880967 -0.54889,-4.583553 -0.27701,-6.005746 C 216.41306,48.058962 214.43196,46 210.37756,46 L 207,46 l 0,7.5 c 0,6 0.3,7.5 1.5,7.5 1.00795,0 1.5,-1.008147 1.5,-3.073324 z m 0,-7.426676 c 0,-1.982339 0.43924,-2.562056 1.75,-2.309629 0.9625,0.18536 1.75,1.224694 1.75,2.309629 0,1.084935 -0.7875,2.124269 -1.75,2.309629 -1.31076,0.252427 -1.75,-0.32729 -1.75,-2.309629 z m 11,2.916667 c 0,-5.62044 -0.32355,-7.476347 -1.25,-7.170009 -0.80637,0.266633 -1.35428,2.957994 -1.54381,7.583333 -0.24275,5.923981 -0.0255,7.170009 1.25,7.170009 1.25603,0 1.54381,-1.413616 1.54381,-7.583333 z M 249.8,59.8 c 2.16515,-2.165149 1.2853,-4.817121 -2.3,-6.932501 -1.925,-1.135778 -3.5,-2.484725 -3.5,-2.99766 0,-1.605305 2.95517,-2.151938 4.5369,-0.839214 1.96957,1.634598 3.12012,0.465967 1.48316,-1.506459 -2.67301,-3.220776 -8.62186,-0.874699 -7.85264,3.096881 0.18292,0.94442 1.68258,2.464948 3.33258,3.378953 1.65,0.914005 3.13459,2.356293 3.29909,3.205086 0.43133,2.225555 -2.46526,2.985884 -4.31777,1.133377 -1.9468,-1.946797 -3.24488,-0.963427 -1.50138,1.137371 1.51264,1.822617 5.14878,1.995447 6.82006,0.324166 z M 255.28975,59 C 255.8934,56.69162 260,56.204245 260,58.440983 c 0,1.47849 1.79072,3.101628 2.56626,2.326093 0.86247,-0.862474 -3.92127,-14.815404 -4.96066,-14.468942 C 255.8761,46.874635 251.90384,61 253.47122,61 c 0.71253,0 1.53087,-0.9 1.81853,-2 z m 1.52008,-3.523502 c -0.28792,-0.287926 -0.30256,-1.679304 -0.0325,-3.09195 0.35903,-1.878151 0.71958,-2.207785 1.34152,-1.226498 1.70696,2.693198 0.62736,6.254817 -1.30901,4.318448 z M 268,54.5 c 0,-5.833333 0.20513,-6.5 2,-6.5 1.1,0 2,-0.45 2,-1 0,-0.55 -2.025,-1 -4.5,-1 -2.475,0 -4.5,0.45 -4.5,1 0,0.55 0.675,1 1.5,1 1.17949,0 1.5,1.388889 1.5,6.5 0,3.666667 0.4359,6.5 1,6.5 0.5641,0 1,-2.833333 1,-6.5 z m 26.8,5.3 c 2.16515,-2.165149 1.2853,-4.817121 -2.3,-6.932501 -1.925,-1.135778 -3.5,-2.484725 -3.5,-2.99766 0,-1.605305 2.95517,-2.151938 4.5369,-0.839214 1.96957,1.634598 3.12012,0.465967 1.48316,-1.506459 -2.67301,-3.220776 -8.62186,-0.874699 -7.85264,3.096881 0.18292,0.94442 1.68258,2.464948 3.33258,3.378953 1.65,0.914005 3.13459,2.356293 3.29909,3.205086 0.43133,2.225555 -2.46526,2.985884 -4.31777,1.133377 -1.9468,-1.946797 -3.24488,-0.963427 -1.50138,1.137371 1.51264,1.822617 5.14878,1.995447 6.82006,0.324166 z m 11.99381,-6.55 C 306.97849,48.692822 306.69991,46 306.04381,46 305.42758,46 305,48.61879 305,52.393011 c 0,4.508956 -0.40615,6.548865 -1.37814,6.921855 C 301.19883,60.244666 300,57.757244 300,51.8 c 0,-3.2 -0.44828,-5.8 -1,-5.8 -1.46881,0 -1.2502,12.3498 0.24508,13.84508 0.68479,0.684794 2.59729,1.112294 4.25,0.95 L 306.5,60.5 l 0.29381,-7.25 z m 5.29501,3 0.0888,-4.75 2.16118,4.729938 C 317.56322,63.286825 319,62.445338 319,53.5 c 0,-4.333333 -0.42222,-7.5 -1,-7.5 -0.55,0 -1.02738,2.3625 -1.06085,5.25 l -0.0608,5.25 -2.64598,-5.25 C 310.43308,43.71173 309,44.327981 309,53.5 c 0,6 0.3,7.5 1.5,7.5 1.11034,0 1.52307,-1.23392 1.58882,-4.75 z m -208.9863,-35 0.10251,-6.75 2.04123,6.75 c 1.12268,3.7125 2.58388,6.75 3.24712,6.75 0.66323,0 2.13378,-3.2625 3.26787,-7.25 l 2.06199,-7.25 0.0884,7.25 c 0.07,5.738497 0.4011,7.25 1.58838,7.25 1.2381,0 1.5,-1.833333 1.5,-10.5 C 117,7.716245 116.86548,6.9999998 115.02793,6.9999998 c -1.54852,0 -2.31582,1.2349155 -3.57268,5.7500002 -0.88035,3.1625 -1.95684,6.875 -2.39221,8.25 -0.85883,2.712362 -0.70125,3.09656 -4.10158,-10 -0.76701,-2.9541485 -1.5514,-4.0000002 -3,-4.0000002 C 100.13738,6.9999998 100,7.7354441 100,17.5 c 0,8.666667 0.2619,10.5 1.5,10.5 1.17506,0 1.52221,-1.46223 1.60252,-6.75 z M 131,21.564306 c 0,-3.492386 -0.5653,-6.955141 -1.29931,-7.958964 -1.60957,-2.201207 -6.54138,-1.836298 -8.06446,0.596694 -1.59153,2.542336 0.0517,3.390379 2.41869,1.248263 1.76867,-1.600628 2.20056,-1.65991 2.99082,-0.410536 1.66388,2.630535 1.00588,3.828515 -2.27769,4.146879 -2.46871,0.239358 -3.45394,0.948663 -4.17203,3.003611 -1.37207,3.926479 0.56827,5.753525 5.99462,5.644606 L 131,27.746349 l 0,-6.182048 z m -7.62,2.983581 C 122.60461,22.527215 123.75781,21 126.05903,21 c 2.17685,0 2.56262,1.978347 0.74097,3.8 -1.59832,1.598335 -2.74226,1.514006 -3.41999,-0.252113 z M 137,21.5 c 0,-4.889233 0.3452,-6.5 1.39301,-6.5 0.76616,0 1.6346,-0.629566 1.92987,-1.399035 0.3995,-1.041063 -0.34074,-1.374158 -2.89301,-1.301812 L 134,12.396373 l 0,7.801812 c 0,6.268277 0.29484,7.801812 1.5,7.801812 1.17949,0 1.5,-1.388889 1.5,-6.5 z m 14.8,5.3 c 0.66001,-0.66 1.20001,-1.785 1.20001,-2.5 0,-1.797128 -2.65589,-1.639115 -3.36164,0.2 -0.75718,1.973202 -3.26231,1.922379 -4.03138,-0.08179 -1.10634,-2.88307 -0.62915,-8.154931 0.84921,-9.381858 1.6751,-1.39021 3.54381,-0.587287 3.54381,1.522665 0,0.792541 0.67499,1.440983 1.5,1.440983 1.79438,0 1.98883,-3.111163 0.29999,-4.8 -1.98905,-1.989045 -6.5283,-1.425992 -8.2433,1.022506 C 139.96735,19.347032 142.66797,28 147.8567,28 c 1.50883,0 3.2833,-0.54 3.9433,-1.2 z m 7.40431,-5.55 c 0.22787,-5.201916 0.63972,-6.75 1.7957,-6.75 1.15598,0 1.56781,1.548084 1.79569,6.75 0.26666,6.087216 0.50102,6.75 2.38691,6.75 1.96097,0 2.05867,-0.405432 1.56867,-6.509727 -0.59218,-7.377337 -2.05658,-9.856225 -5.44045,-9.209358 -2.09174,0.399859 -2.31082,0.07564 -2.31082,-3.4195871 0,-2.765625 -0.42565,-3.8613281 -1.5,-3.8613281 -1.24639,0 -1.5,1.9444444 -1.5,11.5000002 0,9.39498 0.2662,11.5 1.4543,11.5 1.09957,0 1.52645,-1.646464 1.75,-6.75 z m 27.7957,5.75 c 0,-0.55 -1.57501,-1 -3.5,-1 -1.92501,0 -3.49808,-0.3375 -3.49573,-0.75 0.002,-0.4125 1.35043,-2.775 2.99573,-5.25 3.74026,-5.626465 3.97826,-10.3129087 0.63497,-12.5035154 -3.70575,-2.4281033 -8.63497,0.1893888 -8.63497,4.5853024 0,1.780489 2.87342,0.892363 3.5,-1.081787 0.34913,-1.1000002 1.50444,-2.0000002 2.56738,-2.0000002 3.43033,0 2.46568,5.6531822 -2.06738,12.1155052 -2.20001,3.136315 -4,5.968365 -4,6.293443 0,0.325079 2.69999,0.591052 6,0.591052 3.33332,0 6,-0.444444 6,-1 z m 12.76817,-2 c 0.81936,-1.559199 1.18323,-4.902287 0.96689,-8.883619 -0.28327,-5.213128 -0.76949,-6.7258366 -2.65176,-8.2500005 -2.86812,-2.3224783 -3.30321,-2.3191612 -6.22252,0.047441 -2.09765,1.7005007 -2.36078,2.7422995 -2.36078,9.3466055 0,8.716563 1.27342,10.994697 5.89202,10.540638 2.06496,-0.203009 3.49026,-1.115303 4.37615,-2.801065 z m -6.79293,-1.5651 c -2.02474,-5.325473 -0.52067,-14.4349002 2.38338,-14.4349002 1.70562,0 2.60942,3.0321232 2.62772,8.8157412 0.023,7.270083 -3.06633,10.734284 -5.0111,5.619159 z M 211.00001,17.5 c 0,-9.463515 -0.17857,-10.5000002 -1.80887,-10.5000002 -0.99489,0 -2.68239,0.6606885 -3.75,1.4681966 -1.89258,1.4314662 -1.88484,1.4689923 0.30887,1.5 2.16431,0.030592 2.25,0.3745606 2.25,9.0318036 0,7.333333 0.27778,9 1.5,9 1.2381,0 1.5,-1.833333 1.5,-10.5 z m 16,8.083333 c 0,-1.329166 0.5625,-2.679166 1.25,-3 1,-0.466666 1,-0.7 0,-1.166666 -0.8233,-0.384204 -1.25,-2.944445 -1.25,-7.5 0,-9.2060341 -1.83025,-9.1895669 -6.48743,0.05837 -1.93192,3.83627 -3.51257,7.43627 -3.51257,8 0,0.56373 1.575,1.024964 3.5,1.024964 3.06667,0 3.5,0.309524 3.5,2.5 0,1.555556 0.56667,2.5 1.5,2.5 0.91954,0 1.5,-0.935185 1.5,-2.416667 z M 220.04192,20.25 c 0.023,-0.4125 0.9042,-2.325 1.95808,-4.25 l 1.91617,-3.5 0.0419,4.25 C 223.99356,20.347305 223.69285,21 222,21 c -1.1,0 -1.98114,-0.3375 -1.95808,-0.75 z M 23.5974,20 c 3.14258,-2.75 6.02375,-5 6.4026,-5 0.37886,0 3.29749,2.282781 6.48585,5.072847 5.23448,4.580572 5.947352,4.922527 7.346069,3.52381 0.851971,-0.851971 1.350824,-1.689893 1.108562,-1.862048 -0.242262,-0.172156 -3.702976,-3.154213 -7.690476,-6.626794 L 30,8.7940307 22.75,15.107815 c -3.9875,3.472581 -7.42662,6.433049 -7.6425,6.578818 C 14.71181,21.953821 16.97046,25 17.56426,25 c 0.17565,0 2.89056,-2.25 6.03314,-5 z m 280.76876,-1.210799 c 3.92361,-3.41594 7.33205,-6.351654 7.57432,-6.52381 0.24226,-0.172155 -0.25659,-1.010077 -1.10857,-1.862048 -1.39871,-1.3987174 -2.11158,-1.0567622 -7.34606,3.52381 C 300.29748,16.717219 297.37885,19 297,19 c -0.37885,0 -3.29748,-2.282781 -6.48585,-5.072847 -5.13376,-4.492439 -5.96738,-4.9024921 -7.28596,-3.583916 -1.31857,1.318577 -1.04741,1.870382 2.36999,4.822848 2.1224,1.833653 5.44357,4.784239 7.38037,6.556857 1.9368,1.772619 3.68622,3.235119 3.88761,3.25 0.20139,0.01488 3.57639,-2.767802 7.5,-6.183741 z"
     id="path2987"
     inkscape:connector-curvature="0" />
</svg>
